# xmcd
# 
# Track frame offsets:
#     150
#     16895
#     34249
#     48966
#     60860
#     78959
#     96857
#     118153
#     137460
#     155833
#     172164
# 
# Disc length: 2568
# 
# Revision: 1
# Processed by: cddbd v1.5.2PL0 Copyright (c) Steve Scherf et al.
# Submitted via: fre:ac v1.0.27
# 
DISCID=880a060b
DTITLE=Blessid Union Of Souls - The Mission Field
DYEAR=2011
DGENRE=Gospel
TTITLE0=Miracles
TTITLE1=Sweet Providence
TTITLE2=The Only Song
TTITLE3=The Mission Field
TTITLE4=Hold On
TTITLE5=Healing
TTITLE6=I Still Believe In Love
TTITLE7=Higher Calling
TTITLE8=Come Undone
TTITLE9=Pray For You
TTITLE10=Back From The Dead
EXTD=
EXTT0=
EXTT1=
EXTT2=
EXTT3=
EXTT4=
EXTT5=
EXTT6=
EXTT7=
EXTT8=
EXTT9=
EXTT10=
PLAYORDER=
